<svg xmlns="http://www.w3.org/2000/svg" viewBox="0 0 100 100">
  <rect width="100" height="100" rx="8" fill="#1a1a2e"/>
  <!-- Cano duplo -->
  <rect x="10" y="36" width="60" height="6" rx="2" fill="#8a8a8a"/>
  <rect x="10" y="43" width="60" height="6" rx="2" fill="#7a7a7a"/>
  <!-- Corpo da ação -->
  <rect x="60" y="32" width="20" height="22" rx="3" fill="#6a6a6a"/>
  <!-- Coronha / cabo -->
  <path d="M80 32 L92 38 L92 54 L80 54 Z" fill="#5a3a1a"/>
  <path d="M88 38 Q94 46 88 54" fill="none" stroke="#4a2a0a" stroke-width="3"/>
  <!-- Bomba / pump -->
  <rect x="35" y="49" width="20" height="7" rx="3" fill="#5a5a5a"/>
  <!-- Protetor do gatilho -->
  <path d="M65 54 Q62 60 66 65 Q70 65 72 54 Z" fill="none" stroke="#888" stroke-width="2"/>
  <!-- Gatilho -->
  <line x1="68" y1="54" x2="67" y2="64" stroke="#999" stroke-width="2"/>
  <!-- Mira -->
  <rect x="10" y="34" width="3" height="4" rx="1" fill="#aaa"/>
  <rect x="65" y="32" width="3" height="3" rx="1" fill="#aaa"/>
  <!-- Brilho canos -->
  <rect x="12" y="37" width="56" height="1.5" rx="1" fill="#ccc" opacity="0.3"/>
</svg>
