<svg xmlns="http://www.w3.org/2000/svg" viewBox="0 0 100 100">
  <rect width="100" height="100" rx="8" fill="#1a1a2e"/>
  <!-- Lâmina -->
  <path d="M20 75 L70 25 L75 30 L30 80 Z" fill="#9a9a9a"/>
  <!-- Fio da lâmina -->
  <path d="M22 73 L70 25 L72 27 Z" fill="#d0d0d0"/>
  <!-- Serrilhado parcial -->
  <path d="M30 80 L33 74 L36 78 L39 72 L42 76 L45 70 L48 74 L50 70" fill="none" stroke="#777" stroke-width="1.5"/>
  <!-- Guarda -->
  <rect x="65" y="27" width="12" height="4" rx="1" fill="#555" transform="rotate(45 71 29)"/>
  <!-- Cabo -->
  <path d="M72 34 L85 47 L80 52 L67 39 Z" fill="#3a2a1a"/>
  <!-- Entalhes no cabo -->
  <path d="M73 36 L83 46" stroke="#555" stroke-width="1.5" stroke-dasharray="2,2"/>
  <path d="M70 39 L80 49" stroke="#555" stroke-width="1.5" stroke-dasharray="2,2"/>
  <!-- Rebite do cabo -->
  <circle cx="76" cy="44" r="2" fill="#888"/>
  <!-- Brilho -->
  <path d="M25 70 L68 27" stroke="#eee" stroke-width="1" opacity="0.3"/>
</svg>
