<svg xmlns="http://www.w3.org/2000/svg" viewBox="0 0 100 100">
  <rect width="100" height="100" rx="8" fill="#1a1a2e"/>
  <!-- Chama -->
  <path d="M50 28 Q44 20 48 15 Q50 12 52 15 Q55 10 53 22 Q58 15 56 24 Q60 20 57 28 Q55 25 50 28 Z" fill="#ff8800"/>
  <path d="M50 30 Q46 23 49 19 Q50 17 51 19 Q53 15 52 23 Q55 18 54 25 Q50 22 50 30 Z" fill="#ffcc00"/>
  <path d="M50 30 Q49 26 50 24 Q51 22 50 30 Z" fill="#fff" opacity="0.6"/>
  <!-- Corpo do isqueiro -->
  <rect x="36" y="30" width="28" height="50" rx="5" fill="#cc3322"/>
  <rect x="36" y="30" width="28" height="50" rx="5" fill="none" stroke="#992211" stroke-width="1.5"/>
  <!-- Janela de gás (transparente) -->
  <rect x="40" y="50" width="8" height="16" rx="2" fill="#aa2211" opacity="0.5"/>
  <rect x="40" y="50" width="8" height="16" rx="2" fill="none" stroke="#dd6655" stroke-width="1"/>
  <!-- Nível de gás -->
  <rect x="41" y="57" width="6" height="8" rx="1" fill="#ffaa44" opacity="0.5"/>
  <!-- Rodela de pederneira -->
  <rect x="51" y="30" width="10" height="5" rx="2" fill="#888"/>
  <rect x="53" y="29" width="6" height="3" rx="1" fill="#aaa"/>
  <!-- Botão -->
  <rect x="51" y="34" width="10" height="6" rx="2" fill="#555"/>
  <!-- Saída do gás / bico -->
  <rect x="45" y="27" width="6" height="5" rx="2" fill="#777"/>
  <!-- Logo simples -->
  <text x="52" y="48" text-anchor="middle" font-family="sans-serif" font-size="7" fill="#aa2211" font-style="italic">BIC</text>
</svg>
