<svg xmlns="http://www.w3.org/2000/svg" viewBox="0 0 100 100">
  <rect width="100" height="100" rx="8" fill="#1a1a2e"/>
  <!-- Concha da máscara N95 -->
  <path d="M18 42 Q50 28 82 42 Q85 52 82 62 Q50 74 18 62 Q15 52 18 42 Z" fill="#e0d8c8"/>
  <path d="M18 42 Q50 28 82 42 Q85 52 82 62 Q50 74 18 62 Q15 52 18 42 Z" fill="none" stroke="#c0b8a0" stroke-width="1.5"/>
  <!-- Pregas em V (característica do N95) -->
  <path d="M18 52 Q35 40 50 52 Q65 64 82 52" fill="none" stroke="#c0b8a0" stroke-width="1.5"/>
  <path d="M22 46 Q38 36 50 46" fill="none" stroke="#c0b8a0" stroke-width="1"/>
  <path d="M22 58 Q38 68 50 58" fill="none" stroke="#c0b8a0" stroke-width="1"/>
  <!-- Válvula expiratória central -->
  <circle cx="50" cy="52" r="8" fill="#888"/>
  <circle cx="50" cy="52" r="6" fill="#666"/>
  <!-- Aberturas da válvula -->
  <line x1="44" y1="52" x2="56" y2="52" stroke="#999" stroke-width="1.5"/>
  <line x1="50" y1="46" x2="50" y2="58" stroke="#999" stroke-width="1.5"/>
  <circle cx="50" cy="52" r="2" fill="#444"/>
  <!-- Clip nasal -->
  <rect x="33" y="30" width="34" height="4" rx="2" fill="#999"/>
  <!-- Elásticos -->
  <path d="M18 44 Q8 40 8 52 Q8 64 18 60" fill="none" stroke="#c0b8a0" stroke-width="2.5" stroke-linecap="round"/>
  <path d="M82 44 Q92 40 92 52 Q92 64 82 60" fill="none" stroke="#c0b8a0" stroke-width="2.5" stroke-linecap="round"/>
  <!-- Label N95 -->
  <text x="50" y="76" text-anchor="middle" font-family="sans-serif" font-size="9" font-weight="bold" fill="#888">N95</text>
</svg>
