<svg xmlns="http://www.w3.org/2000/svg" viewBox="0 0 100 100" fill="none">
  <!-- Gear teeth outer -->
  <circle cx="50" cy="50" r="30" fill="#3a3a3a" stroke="#cc7722" stroke-width="3"/>
  <circle cx="50" cy="50" r="18" fill="#222" stroke="#cc7722" stroke-width="2"/>
  <circle cx="50" cy="50" r="8" fill="#cc7722"/>
  <!-- Gear teeth -->
  <rect x="46" y="16" width="8" height="10" rx="2" fill="#cc7722"/>
  <rect x="46" y="74" width="8" height="10" rx="2" fill="#cc7722"/>
  <rect x="16" y="46" width="10" height="8" rx="2" fill="#cc7722"/>
  <rect x="74" y="46" width="10" height="8" rx="2" fill="#cc7722"/>
  <rect x="24" y="24" width="8" height="8" rx="2" fill="#cc7722" transform="rotate(45 28 28)"/>
  <rect x="68" y="24" width="8" height="8" rx="2" fill="#cc7722" transform="rotate(45 72 28)"/>
  <rect x="24" y="68" width="8" height="8" rx="2" fill="#cc7722" transform="rotate(45 28 72)"/>
  <rect x="68" y="68" width="8" height="8" rx="2" fill="#cc7722" transform="rotate(45 72 72)"/>
</svg>
